<?xml version="1.0" encoding="UTF-8"?>
<svg width="23px" height="35px" viewBox="0 0 23 35" version="1.1" xmlns="http://www.w3.org/2000/svg" xmlns:xlink="http://www.w3.org/1999/xlink">
    <!-- Generator: Sketch 63.1 (92452) - https://sketch.com -->
    <title>Pin_point</title>
    <desc>Created with Sketch.</desc>
    <g id="Trainers-Page" stroke="none" stroke-width="1" fill="none" fill-rule="evenodd">
        <g id="Widescreen" transform="translate(-923.000000, -3518.000000)" fill="#BAB0A7">
            <g id="Approved_Training_Partner_Section" transform="translate(-1.000000, 3070.000000)">
                <g id="Group-7" transform="translate(0.000000, 317.000000)">
                    <g id="Group-6" transform="translate(850.000000, 63.000000)">
                        <g id="Pin_point" transform="translate(74.000000, 68.000000)">
                            <g id="Group-5">
                                <path d="M11.3568,1.59090909 C16.7376,1.59090909 21.1136,5.94363636 21.1136,11.2922727 C21.1136,12.1720455 20.9952,13.0454545 20.76,13.8870455 C20.664,14.2290909 20.5488,14.5695455 20.4368,14.8495455 L20.152,15.4922727 L11.3568,31.6575 L2.5728,15.5177273 L2.2784,14.8559091 C2.1536,14.5440909 2.0448,14.2179545 1.952,13.8870455 C1.7184,13.0454545 1.6,12.1720455 1.6,11.2922727 C1.6,5.94363636 5.976,1.59090909 11.3568,1.59090909 M0.7904,15.4397727 L1.1344,16.2177273 L11.3568,35 L21.592,16.1922727 L21.9024,15.4906818 C22.056,15.1072727 22.1904,14.7143182 22.3024,14.3118182 C22.5696,13.3509091 22.7136,12.3390909 22.7136,11.2922727 C22.7136,5.05590909 17.6288,0 11.3568,0 C5.0848,0 0,5.05590909 0,11.2922727 C0,12.3375 0.144,13.3509091 0.4112,14.3118182 C0.5184,14.6968182 0.6448,15.0738636 0.7904,15.4397727" id="Fill-1"></path>
                                <path d="M11.3568,7.78447727 C13.2448,7.78447727 14.7824,9.31175 14.7824,11.1906136 C14.7824,13.0678864 13.2464,14.59675 11.3568,14.59675 C9.4672,14.59675 7.9312,13.0694773 7.9312,11.1906136 C7.9312,9.31334091 9.4688,7.78447727 11.3568,7.78447727 M11.3568,16.1860682 C14.1312,16.1860682 16.3824,13.94925 16.3824,11.1890227 C16.3824,8.43038636 14.1328,6.19197727 11.3568,6.19197727 C8.5808,6.19197727 6.3312,8.42879545 6.3312,11.1890227 C6.3312,13.94925 8.5824,16.1860682 11.3568,16.1860682" id="Fill-3"></path>
                            </g>
                        </g>
                    </g>
                </g>
            </g>
        </g>
    </g>
</svg>